<svg xmlns="http://www.w3.org/2000/svg" width="45" height="45" viewBox="0 0 45 45">
  <path d="M24.757,5.373C24.137,4.816 23.334,4.509 22.501,4.509C21.668,4.509 20.865,4.816 20.246,5.373L7.871,16.493C7.518,16.809 7.236,17.195 7.043,17.628C6.85,18.06 6.75,18.528 6.75,19.001V34.875C6.75,35.77 7.106,36.629 7.739,37.262C8.371,37.894 9.23,38.25 10.125,38.25H14.625C15.52,38.25 16.379,37.894 17.011,37.262C17.644,36.629 18,35.77 18,34.875V25.875C18,25.577 18.118,25.291 18.33,25.08C18.541,24.868 18.827,24.75 19.125,24.75H25.875C26.173,24.75 26.459,24.868 26.67,25.08C26.882,25.291 27,25.577 27,25.875V34.875C27,35.77 27.356,36.629 27.989,37.262C28.621,37.894 29.48,38.25 30.375,38.25H34.875C35.77,38.25 36.629,37.894 37.262,37.262C37.894,36.629 38.25,35.77 38.25,34.875V19.001C38.25,18.528 38.15,18.06 37.958,17.628C37.765,17.196 37.484,16.809 37.132,16.493L24.757,5.373Z" fill="#ffffff"/>
</svg>