<svg xmlns="http://www.w3.org/2000/svg" width="165" height="168" viewBox="0 0 165 168">
  <path
    d="M15.47,63C14.1,63 12.79,63.55 11.82,64.54C10.86,65.52 10.31,66.86 10.31,68.25V78.75C10.31,80.14 10.86,81.48 11.82,82.46C12.79,83.45 14.1,84 15.47,84H17.02L35.37,146.27C36.32,149.52 38.28,152.36 40.95,154.38C43.62,156.41 46.85,157.5 50.18,157.5H114.82C118.15,157.5 121.38,156.41 124.05,154.38C126.72,152.36 128.68,149.52 129.63,146.27L147.98,84H149.53C150.9,84 152.21,83.45 153.18,82.46C154.14,81.48 154.69,80.14 154.69,78.75V68.25C154.69,66.86 154.14,65.52 153.18,64.54C152.21,63.55 150.9,63 149.53,63H56.72L51.56,60.38L46.41,63H15.47Z"
    fill="#F3AD61"
  />
  <path
    d="M67.03,10.5C54.14,10.5 46.41,21 46.41,31.5V63H56.72V31.5C56.72,18.38 64.45,15.75 72.19,15.75H92.81C100.55,15.75 108.28,18.38 108.28,31.5V73.5C108.28,74.89 108.82,76.23 109.79,77.21C110.76,78.2 112.07,78.75 113.44,78.75C114.81,78.75 116.12,78.2 117.08,77.21C118.05,76.23 118.59,74.89 118.59,73.5V31.5C118.59,21 110.86,10.5 97.97,10.5H67.03Z"
    fill="#E19747"
  />
</svg>
